<svg id="Page-1" xmlns="http://www.w3.org/2000/svg" width="160.588" height="54.363" viewBox="0 0 160.588 54.363">
  <g id="Artboard-1">
    <g id="App-Store">
      <path id="background" d="M5.524,0h147.54a6.529,6.529,0,0,1,6.524,6.524V47.839a6.529,6.529,0,0,1-6.524,6.524H5.524A6.529,6.529,0,0,1-1,47.839V6.524A6.529,6.529,0,0,1,5.524,0Z" transform="translate(1)" fill="#fff"/>
      <g id="icon" transform="translate(14.241 9.568)">
        <path id="Fill-2" d="M20.888,77.218a7.011,7.011,0,0,1,3.327-5.871,7.211,7.211,0,0,0-5.643-3.055c-2.37-.25-4.675,1.424-5.882,1.424-1.229,0-3.1-1.392-5.1-1.359a7.5,7.5,0,0,0-6.317,3.86C-1.456,76.946.578,83.9,3.2,87.731,4.513,89.6,6.036,91.7,8.047,91.624c1.957-.076,2.7-1.25,5.056-1.25s3.033,1.25,5.077,1.207c2.109-.033,3.425-1.881,4.7-3.773a15.336,15.336,0,0,0,2.142-4.371,6.781,6.781,0,0,1-4.132-6.219" transform="translate(0.023 -60.844)"/>
        <path id="Fill-3" d="M119,4.936A6.9,6.9,0,0,0,120.578,0a6.994,6.994,0,0,0-4.534,2.348,6.614,6.614,0,0,0-1.62,4.751A5.794,5.794,0,0,0,119,4.936" transform="translate(-101.951)"/>
      </g>
      <g id="Group_2" data-name="Group 2" transform="translate(50.003 23.789)">
        <path id="Fill-4" d="M13.447,18.959h-2.74l-1.5-4.719H3.988L2.564,18.959H-.1L5.064,2.9h3.2l5.186,16.059Zm-4.686-6.7L7.4,8.075c-.141-.435-.413-1.435-.8-3.023H6.543c-.163.685-.413,1.7-.761,3.023L4.445,12.261Z" transform="translate(0.1 -2.672)"/>
        <path id="Fill-5" d="M155.155,47.793a6.522,6.522,0,0,1-1.609,4.664,4.687,4.687,0,0,1-3.566,1.522,3.571,3.571,0,0,1-3.305-1.642v6.078H144.1V45.945c0-1.239-.033-2.5-.1-3.805h2.261l.141,1.837h.043a4.566,4.566,0,0,1,7.317-.457A6.3,6.3,0,0,1,155.155,47.793Zm-2.62.087a4.727,4.727,0,0,0-.761-2.783,2.635,2.635,0,0,0-2.24-1.142,2.732,2.732,0,0,0-1.729.631,2.911,2.911,0,0,0-1.011,1.653,3.52,3.52,0,0,0-.12.783v1.935a3.113,3.113,0,0,0,.772,2.131,2.569,2.569,0,0,0,2.011.87,2.654,2.654,0,0,0,2.262-1.12A4.912,4.912,0,0,0,152.535,47.88Z" transform="translate(-128.333 -37.431)"/>
        <path id="Fill-6" d="M277.555,47.793a6.522,6.522,0,0,1-1.609,4.664,4.687,4.687,0,0,1-3.566,1.522,3.571,3.571,0,0,1-3.305-1.642v6.078H266.5V45.945c0-1.239-.033-2.5-.1-3.805h2.262l.141,1.837h.044a4.566,4.566,0,0,1,7.317-.457A6.3,6.3,0,0,1,277.555,47.793Zm-2.62.087a4.727,4.727,0,0,0-.761-2.783,2.635,2.635,0,0,0-2.24-1.142,2.732,2.732,0,0,0-1.729.631,2.97,2.97,0,0,0-1.011,1.653,3.52,3.52,0,0,0-.12.783v1.935a3.113,3.113,0,0,0,.772,2.131,2.569,2.569,0,0,0,2.011.87,2.641,2.641,0,0,0,2.262-1.12A4.838,4.838,0,0,0,274.935,47.88Z" transform="translate(-237.425 -37.431)"/>
        <path id="Fill-7" d="M424.448,12.586a4.3,4.3,0,0,1-1.424,3.338,6.322,6.322,0,0,1-4.371,1.4,7.648,7.648,0,0,1-4.153-1l.6-2.142a7.222,7.222,0,0,0,3.718,1,3.5,3.5,0,0,0,2.261-.652,2.131,2.131,0,0,0,.815-1.75,2.264,2.264,0,0,0-.663-1.642A6.208,6.208,0,0,0,419.012,9.9c-2.838-1.055-4.24-2.588-4.24-4.6a4.079,4.079,0,0,1,1.49-3.24A5.908,5.908,0,0,1,420.208.8a7.759,7.759,0,0,1,3.642.761L423.2,3.649a6.417,6.417,0,0,0-3.088-.739,3.2,3.2,0,0,0-2.131.663,1.93,1.93,0,0,0-.641,1.457,1.952,1.952,0,0,0,.739,1.566,8.3,8.3,0,0,0,2.338,1.239,7.838,7.838,0,0,1,3.044,1.957,4.068,4.068,0,0,1,.989,2.794" transform="translate(-369.422 -0.8)"/>
        <path id="Fill-8" d="M526.645,22.417h-2.838v5.621c0,1.424.5,2.142,1.5,2.142a4.773,4.773,0,0,0,1.142-.12l.076,1.957a5.966,5.966,0,0,1-2,.283,3.079,3.079,0,0,1-2.381-.935,4.538,4.538,0,0,1-.859-3.12V22.406H519.6V20.481h1.685v-2.12l2.522-.761v2.881h2.838v1.935" transform="translate(-463.095 -15.773)"/>
        <path id="Fill-9" d="M608.84,47.926a6.36,6.36,0,0,1-1.522,4.382,5.449,5.449,0,0,1-4.24,1.761,5.218,5.218,0,0,1-4.066-1.685,6.121,6.121,0,0,1-1.511-4.262,6.315,6.315,0,0,1,1.555-4.4A5.426,5.426,0,0,1,603.262,42a5.291,5.291,0,0,1,4.1,1.7A6.044,6.044,0,0,1,608.84,47.926Zm-2.664.054a5.189,5.189,0,0,0-.685-2.729,2.669,2.669,0,0,0-4.675,0,5.887,5.887,0,0,0,0,5.512,2.641,2.641,0,0,0,4.653-.022A5.269,5.269,0,0,0,606.176,47.98Z" transform="translate(-532.526 -37.521)"/>
        <path id="Fill-10" d="M727.908,44.4a4.767,4.767,0,0,0-.815-.065,2.428,2.428,0,0,0-2.1,1.022,3.879,3.879,0,0,0-.641,2.283v6.078h-2.577V45.782c0-1.337-.022-2.555-.076-3.642h2.24l.1,2.218h.076A3.947,3.947,0,0,1,725.4,42.52a3.13,3.13,0,0,1,1.859-.62,5.416,5.416,0,0,1,.642.043l.011,2.457" transform="translate(-643.222 -37.431)"/>
        <path id="Fill-11" d="M800.2,47.112a5.876,5.876,0,0,1-.1,1.163h-7.719a3.356,3.356,0,0,0,1.12,2.62,3.855,3.855,0,0,0,2.522.8,8.662,8.662,0,0,0,3.12-.544l.4,1.783a9.661,9.661,0,0,1-3.881.718,5.624,5.624,0,0,1-4.229-1.587,5.861,5.861,0,0,1-1.533-4.251,6.643,6.643,0,0,1,1.435-4.36A4.926,4.926,0,0,1,795.38,41.6a4.3,4.3,0,0,1,3.784,1.859A6.288,6.288,0,0,1,800.2,47.112Zm-2.457-.663a3.466,3.466,0,0,0-.5-1.979,2.245,2.245,0,0,0-2.044-1.076,2.443,2.443,0,0,0-2.044,1.044,3.867,3.867,0,0,0-.761,2Z" transform="translate(-704.007 -37.164)"/>
      </g>
      <g id="Available-on-the" transform="translate(50.96 9.97)">
        <path id="Fill-12" d="M6.365,12.393H5.017l-.739-2.316H1.711L1,12.393H-.3L2.233,4.5H3.8ZM4.049,9.1,3.386,7.033c-.065-.207-.2-.707-.4-1.49H2.962c-.087.337-.2.826-.381,1.49L1.929,9.1Z" transform="translate(0.3 -4.087)"/>
        <path id="Fill-13" d="M74.569,24.7l-2.153,5.7H71.188L69.1,24.7h1.359l.968,3.012c.163.5.3.979.413,1.435h.033c.1-.413.239-.892.413-1.435l.957-3.012h1.326" transform="translate(-61.554 -22.091)"/>
        <path id="Fill-14" d="M132.634,29.6l-.1-.652H132.5a1.957,1.957,0,0,1-1.664.783,1.652,1.652,0,0,1-1.74-1.674c0-1.4,1.218-2.131,3.327-2.131v-.109c0-.75-.4-1.12-1.185-1.12a2.655,2.655,0,0,0-1.49.424l-.261-.826a3.655,3.655,0,0,1,1.957-.489c1.49,0,2.24.783,2.24,2.359v2.1a7.577,7.577,0,0,0,.087,1.359Zm-.174-2.838c-1.4,0-2.109.337-2.109,1.152a.806.806,0,0,0,.87.892,1.21,1.21,0,0,0,1.239-1.163Z" transform="translate(-115.031 -21.288)"/>
        <path id="Fill-15" d="M191.05,3.711a.756.756,0,1,1,.022-1.511.737.737,0,0,1,.772.75A.739.739,0,0,1,191.05,3.711Zm-.609.935H191.7v5.686h-1.261Z" transform="translate(-169.577 -2.037)"/>
        <path id="Fill-16" d="M223.9.7h1.261V9H223.9Z" transform="translate(-199.524 -0.7)"/>
        <path id="Fill-17" d="M255.934,29.506l-.1-.652H255.8a1.957,1.957,0,0,1-1.664.783,1.652,1.652,0,0,1-1.74-1.674c0-1.4,1.218-2.131,3.327-2.131v-.109c0-.75-.4-1.12-1.185-1.12a2.655,2.655,0,0,0-1.49.424l-.261-.837a3.655,3.655,0,0,1,1.957-.489c1.49,0,2.24.783,2.24,2.359v2.1a8.986,8.986,0,0,0,.076,1.359h-1.131Zm-.174-2.838c-1.4,0-2.109.337-2.109,1.152a.806.806,0,0,0,.87.892,1.21,1.21,0,0,0,1.239-1.163Z" transform="translate(-224.925 -21.199)"/>
        <path id="Fill-18" d="M317.468,9.137a1.937,1.937,0,0,1-1.794-1.011h-.022l-.076.881H314.5c.033-.457.044-.968.044-1.533V.7h1.272V4.147h.022a1.956,1.956,0,0,1,1.816-.946c1.37,0,2.327,1.174,2.327,2.881C319.98,7.843,318.914,9.137,317.468,9.137Zm-.261-4.947A1.452,1.452,0,0,0,315.816,5.7v1a1.39,1.39,0,0,0,1.37,1.424c.946,0,1.511-.772,1.511-2,0-1.152-.587-1.935-1.49-1.935Z" transform="translate(-280.273 -0.7)"/>
        <path id="Fill-19" d="M382.1.7h1.261V9H382.1Z" transform="translate(-340.523 -0.7)"/>
        <path id="Fill-20" d="M415.912,26.784h-3.795a1.633,1.633,0,0,0,1.794,1.685,4.277,4.277,0,0,0,1.533-.272l.2.881a4.611,4.611,0,0,1-1.9.348,2.642,2.642,0,0,1-2.838-2.87,2.78,2.78,0,0,1,2.7-3.055c1.446,0,2.37,1.076,2.37,2.707A2.206,2.206,0,0,1,415.912,26.784Zm-1.153-.9c0-.881-.446-1.5-1.25-1.5a1.5,1.5,0,0,0-1.381,1.5Z" transform="translate(-366.192 -21.021)"/>
        <path id="Fill-21" d="M505.04,29.636a2.706,2.706,0,0,1-2.74-2.925,2.771,2.771,0,0,1,2.838-3.012,2.686,2.686,0,0,1,2.74,2.914A2.791,2.791,0,0,1,505.04,29.636Zm.054-5.012c-.913,0-1.5.859-1.5,2.044s.6,2.022,1.49,2.022,1.49-.913,1.49-2.055S505.986,24.624,505.094,24.624Z" transform="translate(-447.655 -21.199)"/>
        <path id="Fill-22" d="M575.28,29.417h-1.261V26.144c0-1.011-.391-1.511-1.152-1.511a1.308,1.308,0,0,0-1.261,1.392v3.381h-1.261V25.35c0-.5-.011-1.044-.044-1.631h1.109l.054.881h.033a2.047,2.047,0,0,1,1.8-1c1.2,0,1.979.913,1.979,2.4v3.414" transform="translate(-508.261 -21.11)"/>
        <path id="Fill-23" d="M663.947,14.07h-1.392v2.762c0,.707.25,1.055.739,1.055a2.766,2.766,0,0,0,.565-.054l.033.957a2.741,2.741,0,0,1-.979.141c-1,0-1.587-.554-1.587-1.99V14.07H660.5v-.946h.826V12.081l1.239-.381v1.413h1.392v.957" transform="translate(-588.654 -10.504)"/>
        <path id="Fill-24" d="M713.336,9.007h-1.261V5.756c0-1.022-.391-1.533-1.153-1.533a1.239,1.239,0,0,0-1.261,1.348V9H708.4V.7h1.261V4.114h.022a1.913,1.913,0,0,1,1.707-.924c1.207,0,1.946.935,1.946,2.425V9.007" transform="translate(-631.346 -0.7)"/>
        <path id="Fill-25" d="M772.112,26.784h-3.795a1.634,1.634,0,0,0,1.794,1.685,4.276,4.276,0,0,0,1.533-.272l.2.881a4.611,4.611,0,0,1-1.9.348,2.642,2.642,0,0,1-2.838-2.87,2.78,2.78,0,0,1,2.7-3.055c1.446,0,2.37,1.076,2.37,2.707A2.206,2.206,0,0,1,772.112,26.784Zm-1.153-.9c0-.881-.446-1.5-1.25-1.5a1.492,1.492,0,0,0-1.381,1.5Z" transform="translate(-683.664 -21.021)"/>
      </g>
    </g>
  </g>
</svg>
