<svg id="Group_3" data-name="Group 3" xmlns="http://www.w3.org/2000/svg" xmlns:xlink="http://www.w3.org/1999/xlink" width="160.588" height="54.363" viewBox="0 0 160.588 54.363">
  <defs>
    <linearGradient id="linear-gradient" y1="0.5" x2="1" y2="0.5" gradientUnits="objectBoundingBox">
      <stop offset="0" stop-color="#63be6b"/>
      <stop offset="0.506" stop-color="#5bbc6a"/>
      <stop offset="1" stop-color="#4ab96a"/>
    </linearGradient>
    <linearGradient id="linear-gradient-2" y1="0.5" x2="0.999" y2="0.5" gradientUnits="objectBoundingBox">
      <stop offset="0" stop-color="#3ec6f2"/>
      <stop offset="1" stop-color="#45afe3"/>
    </linearGradient>
    <linearGradient id="linear-gradient-3" y1="0.5" x2="1" y2="0.5" gradientUnits="objectBoundingBox">
      <stop offset="0" stop-color="#faa51a"/>
      <stop offset="0.387" stop-color="#fab716"/>
      <stop offset="0.741" stop-color="#fac412"/>
      <stop offset="1" stop-color="#fac80f"/>
    </linearGradient>
    <linearGradient id="linear-gradient-4" y1="0.5" x2="1" y2="0.5" gradientUnits="objectBoundingBox">
      <stop offset="0" stop-color="#ec3b50"/>
      <stop offset="1" stop-color="#e7515b"/>
    </linearGradient>
  </defs>
  <path id="background" d="M6.524,0h147.54a6.529,6.529,0,0,1,6.524,6.524V47.839a6.529,6.529,0,0,1-6.524,6.524H6.524A6.529,6.529,0,0,1,0,47.839V6.524A6.529,6.529,0,0,1,6.524,0Z" transform="translate(0)" fill="#fff"/>
  <g id="Google-play" transform="translate(37.728 21.854)">
    <path id="Fill-1_1_" d="M579.394,65.1l-1.207,1.142c-.283.152-.555.337-.826.457a5.827,5.827,0,0,1-2.446.478,5.36,5.36,0,0,1-3.349-.989A6.568,6.568,0,0,1,569,60.849,5.725,5.725,0,0,1,574.773,55a4.875,4.875,0,0,1,2.588.707,4.18,4.18,0,0,1,1.761,2.512l-5.915,2.4-1.935.152c.631,3.218,2.794,5.088,5.186,5.088a6.2,6.2,0,0,0,2.892-.794S579.514,64.981,579.394,65.1Zm-3.61-6.458c.478-.174.718-.326.718-.685a2.494,2.494,0,0,0-2.468-2.2c-.989,0-2.859.794-2.859,3.544,0,.435.054.892.076,1.348Z" transform="translate(-507.135 -49.02)"/>
    <path id="Fill-2" d="M515.349,15.939c0,.979.174,1.131,1,1.207.435.054.859.076,1.283.12l-.924.555h-4.425c.576-.761.685-.837.685-1.337v-.565l-.011-15H511L512.881,0h3.588a1.733,1.733,0,0,0-1.109,1.609l-.011,14.33" transform="translate(-455.441)"/>
    <path id="Fill-3" d="M411.25,58.913a4.255,4.255,0,0,1,1.772,3.4c0,1.87-1.044,2.751-2.1,3.588a1.785,1.785,0,0,0-.707,1.239,1.4,1.4,0,0,0,.652,1.087l.9.707c1.1.935,2.1,1.794,2.1,3.534,0,2.37-2.283,4.773-6.589,4.773-3.631,0-5.382-1.74-5.382-3.61a3.611,3.611,0,0,1,1.935-3.077,10.743,10.743,0,0,1,4.784-1.163,2.681,2.681,0,0,1-.75-1.718,2.407,2.407,0,0,1,.25-.989c-.272.022-.555.054-.8.054a3.977,3.977,0,0,1-4.153-3.968,4.52,4.52,0,0,1,1.609-3.381A6.792,6.792,0,0,1,409.25,58h5.164l-1.609.913ZM409.489,70.1a3.168,3.168,0,0,0-.576-.033,9.989,9.989,0,0,0-2.653.413,2.882,2.882,0,0,0-2.174,2.653c0,1.827,1.74,3.142,4.447,3.142,2.425,0,3.708-1.185,3.708-2.772C412.24,72.178,411.4,71.482,409.489,70.1Zm.707-4.871a2.549,2.549,0,0,0,.631-1.837c0-1.816-1.066-4.632-3.142-4.632a2.33,2.33,0,0,0-1.75.837,2.9,2.9,0,0,0-.544,1.859c0,1.685.978,4.479,3.12,4.479A2.509,2.509,0,0,0,410.2,65.23Z" transform="translate(-358.203 -51.694)"/>
    <path id="Fill-4_1_" d="M294.121,67.177a5.96,5.96,0,0,1-6.121-6A6.257,6.257,0,0,1,294.5,55a5.913,5.913,0,0,1,6,6A6.17,6.17,0,0,1,294.121,67.177Zm3.12-2.055A4.631,4.631,0,0,0,298,62.3c0-2.251-1.055-6.534-4.186-6.534a3.48,3.48,0,0,0-2.272.87,3.9,3.9,0,0,0-1.163,3.11c0,2.522,1.229,6.676,4.284,6.676A3.188,3.188,0,0,0,297.242,65.122Z" transform="translate(-256.687 -49.02)"/>
    <path id="Fill-5" d="M171.121,67.177a5.96,5.96,0,0,1-6.121-6A6.257,6.257,0,0,1,171.5,55a5.913,5.913,0,0,1,6,6A6.17,6.17,0,0,1,171.121,67.177Zm3.12-2.055A4.631,4.631,0,0,0,175,62.3c0-2.251-1.066-6.534-4.186-6.534a3.459,3.459,0,0,0-2.272.87,3.861,3.861,0,0,0-1.163,3.11c0,2.522,1.239,6.676,4.284,6.676A3.188,3.188,0,0,0,174.242,65.122Z" transform="translate(-147.06 -49.02)"/>
    <path id="Fill-6" d="M16.287,26.32l-3.381.783a24.559,24.559,0,0,1-3.9.413c-6.524-.011-9-4.838-9-8.622C0,14.284,3.523,10,9.546,10a13.421,13.421,0,0,1,3.621.5,9.184,9.184,0,0,1,3.12,1.479L14.319,13.86l-.826.185.587-.946a6.75,6.75,0,0,0-5.056-2.24c-3.729,0-6.545,2.849-6.545,7.013,0,4.469,3.207,8.676,8.361,8.676a7.067,7.067,0,0,0,3-.587V22.123l-3.566.2L12.166,21.3h5.012l-.609.6a.579.579,0,0,0-.239.381c-.022.217-.043.9-.043,1.152V26.32" transform="translate(0 -8.913)"/>
    <path id="Fill-7_1_" d="M721.272,65.209v6.426H720V55.294h1.272v1.859a5.043,5.043,0,0,1,4.1-2.153c3.153,0,5.284,2.4,5.284,6.2,0,3.773-2.12,6.219-5.284,6.219A5.047,5.047,0,0,1,721.272,65.209ZM729.35,61.3c0-2.892-1.49-5.1-4.142-5.1a5.066,5.066,0,0,0-3.9,2.446v5.284a5.11,5.11,0,0,0,3.9,2.49C727.861,66.416,729.35,64.187,729.35,61.3Z" transform="translate(-641.718 -49.02)"/>
    <path id="Fill-8" d="M834,16h1.3V32.418H834Z" transform="translate(-743.323 -14.26)"/>
    <path id="Fill-9" d="M966.25,72.287a3.053,3.053,0,0,0,1.033.2c.783,0,1.316-.315,1.8-1.446l.924-2.109L965,57h1.424l4.295,10.34L974.981,57h1.435l-6.11,14.428a3.124,3.124,0,0,1-3,2.207,4.994,4.994,0,0,1-1.272-.174l.217-1.174" transform="translate(-860.08 -50.803)"/>
    <path id="Fill-10" d="M872.544,67.166q-.131-.62-.2-1.076a6.476,6.476,0,0,1-.065-.924,5.027,5.027,0,0,1-1.859,1.609,5.127,5.127,0,0,1-2.588.631,4.126,4.126,0,0,1-2.9-.935,3.254,3.254,0,0,1-1.033-2.533,3.008,3.008,0,0,1,1.5-2.6,6.914,6.914,0,0,1,3.892-1h2.979V58.86a2.471,2.471,0,0,0-.87-2,3.671,3.671,0,0,0-2.446-.728,3.9,3.9,0,0,0-2.348.663,2.029,2.029,0,0,0-.892,1.664h-1.3l-.022-.065a2.755,2.755,0,0,1,1.24-2.37,5.331,5.331,0,0,1,3.4-1.022,5.274,5.274,0,0,1,3.37,1.011,3.448,3.448,0,0,1,1.272,2.881v5.871a9.08,9.08,0,0,0,.076,1.229,8.326,8.326,0,0,0,.25,1.174ZM868,66.307a4.81,4.81,0,0,0,2.664-.728,3.651,3.651,0,0,0,1.609-1.87V61.415h-3a4.851,4.851,0,0,0-2.838.772,2.213,2.213,0,0,0-1.12,1.859,2.057,2.057,0,0,0,.718,1.642A2.944,2.944,0,0,0,868,66.307Z" transform="translate(-769.972 -49.02)"/>
  </g>
  <g id="Get-it-on" transform="translate(37.293 8.687)">
    <path id="Fill-1_2_" d="M0,4.749A3.9,3.9,0,0,1,4.2.9,3.85,3.85,0,0,1,7.415,2.444l-1.142.609A2.654,2.654,0,0,0,4.2,2.063,2.643,2.643,0,0,0,1.435,4.749,2.656,2.656,0,0,0,4.2,7.434,2.966,2.966,0,0,0,6.089,6.76V5.619H3.7V4.466H7.48V7.239A4.46,4.46,0,0,1,4.2,8.6,3.891,3.891,0,0,1,0,4.749" transform="translate(0 -0.9)"/>
    <path id="Fill-2_1_" d="M85.5,9.48V2h5.556V3.152H86.924V5.077h4.045V6.24H86.924V8.328h4.132V9.48H85.5" transform="translate(-76.204 -1.88)"/>
    <path id="Fill-3_1_" d="M151.514,9.48V3.152H149.1V2h6.23V3.152h-2.414V9.48h-1.4" transform="translate(-132.889 -1.88)"/>
    <path id="Fill-4_2_" d="M252.3,2h1.359V9.48H252.3Z" transform="translate(-224.869 -1.88)"/>
    <path id="Fill-5_1_" d="M280.814,9.48V3.152H278.4V2h6.23V3.152h-2.414V9.48h-1.4" transform="translate(-248.131 -1.88)"/>
    <path id="Fill-6_1_" d="M378.5,4.849A4.148,4.148,0,1,1,382.643,8.7,3.859,3.859,0,0,1,378.5,4.849Zm6.8-.065a2.664,2.664,0,1,0-5.328,0,2.664,2.664,0,1,0,5.328,0Z" transform="translate(-337.347 -0.989)"/>
    <path id="Fill-7_2_" d="M474.667,9.48,470.5,4.131V9.48h-1.4V2h1.435l4.077,5.186V2h1.4V9.48h-1.348" transform="translate(-418.097 -1.88)"/>
  </g>
  <g id="google-play-5" transform="translate(6.197 18.79)">
    <path id="Path_1" data-name="Path 1" d="M16.559,9,.949.081A.629.629,0,0,0,.316.088.625.625,0,0,0,0,.632s.006.823.013,2.177L11.383,14.179Z" transform="translate(0 0.001)" fill="url(#linear-gradient)"/>
    <path id="Path_2" data-name="Path 2" d="M.2,44.4c.019,4.885.076,16.743.1,22.647L11.577,55.771Z" transform="translate(-0.187 -41.59)" fill="url(#linear-gradient-2)"/>
    <path id="Path_3" data-name="Path 3" d="M193.917,147.406l-8.935-5.106-5.182,5.176,5.847,5.847,8.277-4.822a.632.632,0,0,0,.316-.544A.641.641,0,0,0,193.917,147.406Z" transform="translate(-168.423 -133.296)" fill="url(#linear-gradient-3)"/>
    <path id="Path_4" data-name="Path 4" d="M1.7,235.47c.013,2.107.019,3.455.019,3.455a.617.617,0,0,0,.316.544.629.629,0,0,0,.633,0l16.155-9.422L12.976,224.2Z" transform="translate(-1.592 -210.013)" fill="url(#linear-gradient-4)"/>
  </g>
</svg>
