<svg xmlns="http://www.w3.org/2000/svg" width="11.641" height="11.641" viewBox="0 0 11.641 11.641">
  <path id="message_3_dots" d="M4.791,11.215,3.763,10.186H1.455A1.455,1.455,0,0,1,0,8.731V1.456A1.455,1.455,0,0,1,1.455,0h8.731a1.455,1.455,0,0,1,1.455,1.456V8.731a1.455,1.455,0,0,1-1.455,1.455H7.878L6.849,11.215a1.455,1.455,0,0,1-2.058,0ZM1.455,8.731h2.91l1.456,1.455L7.276,8.731h2.91V1.456H1.455ZM7.276,5.093A.727.727,0,1,1,8,5.821.73.73,0,0,1,7.276,5.093Zm-2.183,0a.728.728,0,1,1,.728.728A.73.73,0,0,1,5.093,5.093Zm-2.183,0a.727.727,0,1,1,.727.728A.73.73,0,0,1,2.91,5.093Z" fill="#707070"/>
</svg>
