<svg xmlns="http://www.w3.org/2000/svg" width="11.641" height="11.641" viewBox="0 0 11.641 11.641">
  <path id="Path_657" data-name="Path 657" d="M329.459,327.276a2.175,2.175,0,0,0-1.511.613l-3.609-1.8a1.313,1.313,0,0,0,0-.529l3.609-1.8a2.178,2.178,0,1,0-.672-1.569,2.106,2.106,0,0,0,.027.264l-3.609,1.8a2.183,2.183,0,1,0,0,3.138l3.609,1.8a2.119,2.119,0,0,0-.027.265,2.183,2.183,0,1,0,2.183-2.183Zm0-5.821a.728.728,0,1,1-.728.728A.728.728,0,0,1,329.459,321.455Zm-7.276,5.093a.728.728,0,1,1,.728-.728A.728.728,0,0,1,322.183,326.548Zm7.276,3.638a.728.728,0,1,1,.728-.728A.728.728,0,0,1,329.459,330.186Z" transform="translate(-320 -320)" fill="#c7852f"/>
</svg>
