<svg id="belson-1" xmlns="http://www.w3.org/2000/svg" width="75.101" height="27.952" viewBox="0 0 75.101 27.952">
  <path id="Path_1129" data-name="Path 1129" d="M26.778,62.089H17.285v26.9h9.81V83.5H22.875V77.595h3.691V72.426H22.875V67.469h3.9Zm1.688,0v26.9h7.805V83.712H34.056V62.089Zm9.7,12.025A11.557,11.557,0,0,0,40.7,76.751l2.532,2A4.156,4.156,0,0,1,44.287,81.6v1.161a6.086,6.086,0,0,1-.105,1.582c-.106.527-.422.844-.845.844-.633,0-.949-.527-.949-1.687V79.178H37.115v3.375c0,2.215.316,3.9,1.055,4.852.949,1.371,2.637,2.109,5.063,2.109a6.9,6.9,0,0,0,4.746-1.37c1.161-1.161,1.793-2.954,1.793-5.485v-2.11a9.167,9.167,0,0,0-1.161-4.641,8.7,8.7,0,0,0-2.532-2.743l-2.531-2a3.26,3.26,0,0,1-1.266-2.426v-1.16c0-1.16.317-1.793.949-1.793.739,0,1.161.633,1.161,1.9V69.9H49.35V67.469A6.6,6.6,0,0,0,48.3,63.356c-.949-1.16-2.637-1.793-5.063-1.793-4.114,0-6.118,2.215-6.118,6.645v1.476A8.613,8.613,0,0,0,38.169,74.114Zm20.357-6.329v15.4c0,1.161-.316,1.794-1.055,1.794s-1.055-.633-1.055-1.794v-15.4c0-1.16.316-1.793,1.055-1.793S58.526,66.625,58.526,67.785Zm-1.055-6.223a6.146,6.146,0,0,0-5.485,2.531,12.087,12.087,0,0,0-1.161,5.7V81.181a12.258,12.258,0,0,0,1.161,5.8,6.147,6.147,0,0,0,5.485,2.531c2.637,0,4.43-.844,5.485-2.531a12.249,12.249,0,0,0,1.161-5.8V69.79a12.077,12.077,0,0,0-1.161-5.7c-1.055-1.688-2.848-2.532-5.485-2.532Zm7.7.527v26.9h4.746V73.9h.106l3.164,15.083h4.746v-26.9H73.189v13.4h-.106l-3.164-13.4Zm-54.11,0H2.834v26.9h7.911a5.139,5.139,0,0,0,4.008-1.371c.949-.949,1.371-2.532,1.371-4.536v-3.8a6.038,6.038,0,0,0-1.16-3.8,4.128,4.128,0,0,0-2.954-1.371v-.106a3.867,3.867,0,0,0,2.743-.844A4.365,4.365,0,0,0,15.7,70V67.046a5.558,5.558,0,0,0-1.16-3.9,4.75,4.75,0,0,0-3.481-1.055Zm-1.9,4.325a1.287,1.287,0,0,1,.949.422A1.9,1.9,0,0,1,10.429,68v2.848a2.25,2.25,0,0,1-.316,1.266,1.289,1.289,0,0,1-.949.422H8.53V66.414h.633ZM9.058,76.645c.949,0,1.371.527,1.371,1.688v4.43c0,1.161-.422,1.688-1.371,1.688H8.53V76.645Z" transform="translate(-2.834 -61.562)" fill="#ababd2" fill-rule="evenodd"/>
</svg>
