<svg xmlns="http://www.w3.org/2000/svg" width="122.044" height="23.433" viewBox="0 0 122.044 23.433">
  <g id="bomag" transform="translate(133.496 25.494)">
    <path id="Path_1142" data-name="Path 1142" d="M62.331,90.066l-.012,12.873H56.774v-23.4H63.8l6.73,14.407,6.826-14.407h7.019v23.4H78.336l-.012-12.677-5.46,12.677h-4.68L62.331,90.066Zm62.313,3.756-.465,0-5.191-.044V88.409h11.505l.054,11.7c-.017,2.189-.794,2.837-2.449,2.833l-15.531-.029a2.345,2.345,0,0,1-2.606-2.51l.017-18.7c.03-1.625.686-2.171,2.345-2.2l18.169.029v5.655H116.379l-.218.243-.014,11.9.232.246,8.044.012.232-.244-.01-3.523ZM27.967,90.606a2.434,2.434,0,0,1,2.362,2.54l-.01,7.755a1.907,1.907,0,0,1-2.007,2.02L8.5,102.939v-23.4H27.773c1.94.049,2.575.983,2.578,2.655l-.031,6.219a2.351,2.351,0,0,1-2.353,2.2ZM24.2,85.434l-.22-.243H15.134v3.219h8.849l.22-.243V85.434Zm0,8.874-.28-.243H15.134v3.511h8.789l.28-.183V94.308ZM52.311,79.523a2.291,2.291,0,0,1,2.337,2.41L54.636,100.6c0,1.666-.65,2.333-2.25,2.324l-17.463-.013a2.241,2.241,0,0,1-2.547-2.267l.035-18.537a2.291,2.291,0,0,1,2.223-2.571Zm-3.728,6.156-.4-.489H38.612l-.366.489V97.331l.3.246h9.692l.34-.366V85.68Zm57.35-6.144c1.427.014,2.039,1.11,2.039,2.828v20.576h-6.046V96.1l-.292-.366-8.778-.013-.292.366-.014,6.85H86.284l-.011-20.965c0-1.281.669-2.439,1.767-2.439h17.891Zm-4.362,10.53.159-.243V85.751l-.342-.364H92.855l-.292.364v4.071l.169.243Z" transform="translate(-142 -105)" fill="#ababd2" fill-rule="evenodd"/>
  </g>
</svg>
