<svg id="cricket-1322" xmlns="http://www.w3.org/2000/svg" width="75.1" height="26.73" viewBox="0 0 75.1 26.73">
  <path id="Path_1133" data-name="Path 1133" d="M16.2,86.3a9.857,9.857,0,0,1-9.828-9.841,10.091,10.091,0,0,1,10.084-9.854h1V63.085H15.444a13.373,13.373,0,0,0,.013,26.7L16.2,86.3ZM41.16,65.109H44.7v24.7H41.16Zm10.6,5.536h4.036L49.246,80.23l6.561,9.585H51.77L45.209,80.23l6.548-9.585ZM74.9,74.181h3.037V70.645H74.9V65.109H71.362v24.7H74.9ZM20.492,77.206V89.814H16.955V70.658h3.537v2.012a4.415,4.415,0,0,1,3.524-2.024v3.537s-3.024.5-3.524,3.024Zm4.536-6.561h3.537V89.8H25.028Zm0-5.548h3.537v3.537H25.028Zm15.2,21.1a9.875,9.875,0,0,1-1.089.077,6.042,6.042,0,0,1,0-12.083,6.646,6.646,0,0,1,1.14.1l-1.128-3.652a9.585,9.585,0,0,0,0,19.169L40.225,86.2Zm16.645-3.434a6.328,6.328,0,0,1-.564-2.537,6.054,6.054,0,0,1,6.035-6.035,6.229,6.229,0,0,1,3.408,1.025Zm2.076,2.486A6.272,6.272,0,0,0,67.4,83.767V88.3a9.97,9.97,0,0,1-5.048,1.513,9.585,9.585,0,1,1,8.264-14.454Z" transform="translate(-2.835 -63.085)" fill="#ababd2" fill-rule="evenodd"/>
</svg>
