<svg id="kolber-geneve" xmlns="http://www.w3.org/2000/svg" width="75.101" height="37.911" viewBox="0 0 75.101 37.911">
  <path id="Path_1135" data-name="Path 1135" d="M77.59,61.3V61c-.108-1.057-1.338-2.027-3.009-2.178-1.811-.172-3.612.345-5.423.518-.474-.6-.96-1.2-1.434-1.79q-4.627,4.577-9.23,9.165c-.615-1.272-1.229-2.534-1.843-3.806.151-.151.312-.3.463-.464.345.334,1.488,1.024,2.189.065a3.115,3.115,0,0,0-.517-3.58c-.776-.776-2.221-.55-3.289-.291a7.564,7.564,0,0,0-1.887.776,13.825,13.825,0,0,0-3.871,3.838A5.082,5.082,0,0,0,47.193,59.1c.809-1.477,2.189-2.771,2.427-4.432.28-2.049-1.574-3.591-2.771-2.2a38.951,38.951,0,0,0-3.353,4.787c-.851,1.4-1.682,2.836-2.566,4.205-1.779,2.75-4.044,5.262-5.251,8.3a2.693,2.693,0,0,0,.755,3.062c.884.528,1.995-.54,3-.809.539.96,2.146,1.887,3.224,1.5q.425-.163.841-.345A11.583,11.583,0,0,0,48.584,68.5a5.378,5.378,0,0,0,4.777,4.669c.086.011.161.011.248.022,1.758.086,3.332-1.445,5-2.1,1,.463,1.995,1.844,3,1.38,1.639-.744,2.124-2.933,3.342-4.259A16.067,16.067,0,0,1,71.691,63.6c1.768-.6,3.849.086,5.251-1.154A1.726,1.726,0,0,0,77.59,61.3Zm-33.415,5.64a7.282,7.282,0,0,1-.68.863c-.658.722-1.262,1.121-1.541.927-.378-.259.01-1.488.862-2.728a7.436,7.436,0,0,1,.679-.873c.647-.723,1.272-1.111,1.553-.927C45.426,64.459,45.037,65.688,44.175,66.939Zm9.434,2.211a1.322,1.322,0,0,1-1.337-.992c-.27-.96.873-3.17,1.337-3.192.076,0,.129.054.161.194a13.851,13.851,0,0,0,1.208,3.515A2.042,2.042,0,0,1,53.609,69.15ZM30.7,69.6a15.744,15.744,0,0,0,1.132-2.35,6.018,6.018,0,0,0,.194-4.432c-.065-.151-.129-.313-.194-.464-.582-1.466-1.24-3.019-3.386-2.35a3.094,3.094,0,0,0-.442.162c-2.642,1.154-3.849,4.852-4.173,7.17-.345.345-.69.884-1.035,1.229a26.95,26.95,0,0,1-7.246-.377c-2.555-.56-6.092-.668-7.246-3.008-.83-1.682,2.124-3.192,3.666-4.237,3.6-2.437,7.322-3.181,10.265-4.054,1.3-.377,1.315-3.256,0-3.288-3.483-.086-7.386,1.391-10.933,3.418a29.161,29.161,0,0,0,1.984-5.963c.291-2.383-1.973-2.534-2.911-.464-.043.1-1.822,4.809-3.526,9.37-.151.108-.291.216-.431.324C4.829,61.506,2.9,64.277,3.869,66.024a7.66,7.66,0,0,0,.442.7c-.388,1.024-.625,1.661-.625,1.661a34.445,34.445,0,0,0-.852,3.386V72a1.956,1.956,0,0,0,.377,1.089c.711.938,1.9-1.229,2.264-2.35.173-.528.442-1.24.787-2.081a22.563,22.563,0,0,0,6.179,2.459,34.1,34.1,0,0,0,11.666,1.035c.658.56,1.11,1.639,1.984,1.693A2.838,2.838,0,0,0,28,73.183,12.077,12.077,0,0,0,30.7,69.6Zm-3.85-.474c0-1.283-.129-2.836,1.122-3.86.01,0,.022-.011.032-.011.679-.528,1.6.269.916,1.143-.291.367-.6.755-.916,1.175q-.607.754-1.154,1.553Z" transform="translate(-2.834 -49.148)" fill="#ababd2" fill-rule="evenodd"/>
  <path id="Path_1136" data-name="Path 1136" d="M61.65,63.421a17.431,17.431,0,0,0,1.477-2.167,3.437,3.437,0,0,0,.421-1.574,3.243,3.243,0,0,0-.421-1.337c-.42-.776-1.067-1.4-1.531-.97-2.038,1.876-3.31,4.572-4.895,7.084A52.48,52.48,0,0,0,53,70.571c-.517,1.154-1.121,2.318-1.542,3.429a6.831,6.831,0,0,0-.528,2.448,1.81,1.81,0,0,0,.528,1.164c.485.518,1.186.755,1.542.226,1.273-1.865,1.941-4.216,3.116-6.167C57.963,68.586,59.785,66.031,61.65,63.421Zm-20.4,22.827a.332.332,0,0,0-.108-.161,1.941,1.941,0,0,0-.194-.119l-.108-.032a.325.325,0,0,0-.1-.022c-.129.011-.28.032-.442.054s-.313.043-.485.065a3.175,3.175,0,0,1-.356.054c-.119.022-.226.043-.334.065a2.075,2.075,0,0,0-.291.043,1.523,1.523,0,0,0-.237.054.549.549,0,0,0-.194.087.163.163,0,0,0-.075.151.187.187,0,0,0,.011.064.314.314,0,0,0,.022.1c.033.173.075.324.108.453s.065.226.086.313a.923.923,0,0,0,.216.356.71.71,0,0,0,.27.14c.021.011.054.022.075.033a.312.312,0,0,1,.086.022.058.058,0,0,1,.043.032.215.215,0,0,1,.043.087v.043A4.029,4.029,0,0,1,39,89.138a2.124,2.124,0,0,1-.464.7.954.954,0,0,1-.129.086.37.37,0,0,1-.129.032.26.26,0,0,1-.194-.1.9.9,0,0,1-.162-.259,5.743,5.743,0,0,1-.324-1.186,7.032,7.032,0,0,1-.118-1.369V86.7c.011-.108.022-.226.022-.334a9.228,9.228,0,0,1,.442-2.275,3.523,3.523,0,0,1,.981-1.6.04.04,0,0,0,.032-.01.034.034,0,0,1,.022-.01.153.153,0,0,1,.065-.022.083.083,0,0,1,.043-.01c.118,0,.216.1.27.28a2.806,2.806,0,0,1,.118.615,1.905,1.905,0,0,0,.011.259v.248l-.011.033a.271.271,0,0,0,.1.215.567.567,0,0,0,.28.13.2.2,0,0,0,.054.021.136.136,0,0,0,.065.011c.043.011.1.022.151.032a1,1,0,0,0,.151.022.62.62,0,0,0,.55-.259,1.067,1.067,0,0,0,.173-.625,2.1,2.1,0,0,0-.043-.431,3.772,3.772,0,0,0-.129-.464,3.951,3.951,0,0,0-.5-1,1.81,1.81,0,0,0-.712-.625l-.162-.065a.856.856,0,0,0-.162-.033c-.065-.011-.118-.022-.173-.032s-.119-.011-.183-.011a1.236,1.236,0,0,0-.269.032,2.138,2.138,0,0,0-.28.054,3.364,3.364,0,0,0-1.65,1.413A6.884,6.884,0,0,0,35.7,85.2a1.612,1.612,0,0,0-.022.238,1.578,1.578,0,0,0-.011.226c-.011.129-.022.248-.022.356s-.011.237-.011.345a7.227,7.227,0,0,0,.873,3.763,2.7,2.7,0,0,0,2.426,1.456h.151a.891.891,0,0,0,.226-.065.761.761,0,0,0,.237-.14,2.066,2.066,0,0,0,.474-.453,4.289,4.289,0,0,0,.41-.636c.151-.28.269-.507.366-.69a1.165,1.165,0,0,0,.162-.5.351.351,0,0,0,.021-.086v-.1a1.8,1.8,0,0,0-.065-.431,5.35,5.35,0,0,0-.173-.582v-.064a.041.041,0,0,1-.01-.033.077.077,0,0,1,.043-.065.307.307,0,0,1,.118-.054c.022,0,.033,0,.043-.01h.054a1.806,1.806,0,0,0,.4-.141.275.275,0,0,0,.118-.259,1.751,1.751,0,0,0-.065-.41c-.053-.173-.118-.378-.194-.626Zm11.408,3.893a1.236,1.236,0,0,0-.237-.5.531.531,0,0,0-.442-.237.309.309,0,0,0-.1.01c-.022,0-.054.011-.086.011a.349.349,0,0,0-.1.032.315.315,0,0,0-.086.043c-.4.108-.723.205-.981.259a2.551,2.551,0,0,1-.593.1.4.4,0,0,1-.248-.075.325.325,0,0,1-.086-.194v-.345a1.366,1.366,0,0,1-.022-.183v-.151c0-.388.011-.723.022-.992s.033-.485.054-.636a.552.552,0,0,0,.022-.119.3.3,0,0,0,.011-.1c.022-.075.043-.129.065-.141a.143.143,0,0,1,.108-.032h.453a7.866,7.866,0,0,0,1.057-.1c.313-.054.474-.173.474-.345V86.42c-.021-.086-.043-.151-.065-.216a1.131,1.131,0,0,0-.065-.173,1.294,1.294,0,0,0-.377-.6,1.327,1.327,0,0,0-.755-.162,2.525,2.525,0,0,0-.281.011c-.108.011-.216.011-.356.022-.065,0-.118-.01-.14-.043a.212.212,0,0,1-.054-.151c.011-.248.033-.475.054-.69a6.535,6.535,0,0,1,.1-.647c.022-.129.043-.259.075-.388a2.542,2.542,0,0,1,.1-.388c0-.011.011-.022.011-.033a.376.376,0,0,1,.129-.2.555.555,0,0,1,.27-.043,3.825,3.825,0,0,1,.474-.065h.916a.228.228,0,0,0,.129-.032.15.15,0,0,0,.054-.108.487.487,0,0,0-.043-.183A1.146,1.146,0,0,0,52,82.1a1.853,1.853,0,0,0-.291-.389q-.168-.171-.345-.334a.177.177,0,0,1-.075-.043.319.319,0,0,0-.065-.054c-.086-.054-.162-.1-.216-.129s-.118-.065-.162-.086a1.059,1.059,0,0,0-.194-.022,1.647,1.647,0,0,0-.237-.01,10.31,10.31,0,0,0-1.963.161c-.442.086-.7.237-.776.421a.055.055,0,0,0-.022.043.082.082,0,0,0-.01.054.137.137,0,0,0-.011.065v.043a1,1,0,0,0,.043.291,2.724,2.724,0,0,0,.108.324l.162.291a1.25,1.25,0,0,0,.151.27,1.5,1.5,0,0,0,.129.194.558.558,0,0,0,.129.141.082.082,0,0,1,.043.043c.011.033.022.054.033.086v.086a8.913,8.913,0,0,0-.324,1.391,16.224,16.224,0,0,0-.183,1.649c-.011.183-.022.377-.022.56s-.011.377-.011.572a12.521,12.521,0,0,0,.14,2.005,2.166,2.166,0,0,0,.41,1.154,1.2,1.2,0,0,0,.6.55,2.162,2.162,0,0,0,.841.162,2.07,2.07,0,0,0,.259-.011,2.364,2.364,0,0,0,.27-.022q.343-.066.679-.162a4.441,4.441,0,0,0,.6-.193c.151-.065.291-.119.41-.173s.226-.108.3-.14a.446.446,0,0,0,.205-.238,1.119,1.119,0,0,0,.054-.323.3.3,0,0,0-.011-.1Zm44.9,0a1.232,1.232,0,0,0-.238-.5.5.5,0,0,0-.442-.237.213.213,0,0,0-.086.01c-.033,0-.065.011-.087.011a.328.328,0,0,0-.108.032.585.585,0,0,0-.086.043c-.4.108-.723.205-.971.259a2.712,2.712,0,0,1-.6.1.346.346,0,0,1-.238-.075.279.279,0,0,1-.1-.194v-.345a1.169,1.169,0,0,1-.011-.183v-.151c0-.388,0-.723.021-.992s.022-.485.043-.636a.555.555,0,0,0,.022-.119.3.3,0,0,0,.011-.1c.021-.075.043-.129.064-.141a.162.162,0,0,1,.108-.032h.452a7.884,7.884,0,0,0,1.057-.1c.313-.054.474-.173.474-.345V86.42c-.021-.086-.032-.151-.053-.216a1.313,1.313,0,0,0-.076-.173,1.291,1.291,0,0,0-.377-.6,1.3,1.3,0,0,0-.755-.162,2.5,2.5,0,0,0-.28.011c-.1.011-.216.011-.356.022-.065,0-.119-.01-.141-.043a.212.212,0,0,1-.043-.151c.011-.248.021-.475.043-.69s.064-.431.1-.647c.021-.129.043-.259.075-.388l.1-.388c0-.011.01-.022.021-.033a.32.32,0,0,1,.118-.2.555.555,0,0,1,.27-.043,3.843,3.843,0,0,1,.474-.065h.916a.232.232,0,0,0,.13-.032.119.119,0,0,0,.053-.108.472.472,0,0,0-.043-.183A1.1,1.1,0,0,0,96.9,82.1a1.853,1.853,0,0,0-.291-.389c-.108-.118-.226-.226-.345-.334a.275.275,0,0,1-.076-.043.3.3,0,0,0-.064-.054c-.086-.054-.162-.1-.216-.129s-.108-.065-.162-.086a.945.945,0,0,0-.183-.022,1.8,1.8,0,0,0-.248-.01,10.4,10.4,0,0,0-1.963.161c-.442.086-.7.237-.776.421a.056.056,0,0,0-.022.043.085.085,0,0,0-.01.054.137.137,0,0,0-.011.065v.043a1.009,1.009,0,0,0,.043.291,3.117,3.117,0,0,0,.118.324c.043.1.1.194.151.291a2.121,2.121,0,0,0,.151.27,1.463,1.463,0,0,0,.141.194.535.535,0,0,0,.119.141.085.085,0,0,1,.043.043c.01.033.021.054.032.086v.086a8.912,8.912,0,0,0-.324,1.391,16.221,16.221,0,0,0-.183,1.649c-.01.183-.021.377-.021.56s-.011.377-.011.572a12.472,12.472,0,0,0,.14,2.005,2.166,2.166,0,0,0,.41,1.154,1.237,1.237,0,0,0,.6.55,2.237,2.237,0,0,0,.841.162,2.331,2.331,0,0,0,.27-.011,2.013,2.013,0,0,0,.259-.022q.343-.065.68-.162a4.462,4.462,0,0,0,.6-.193c.151-.065.291-.119.41-.173s.226-.108.3-.14a.446.446,0,0,0,.206-.238,1.133,1.133,0,0,0,.054-.323v-.1a.2.2,0,0,1-.011-.086ZM85.836,81.374a1.558,1.558,0,0,0-.194-.162l-.193-.162a1.255,1.255,0,0,0-.216-.129.539.539,0,0,0-.151-.043c-.064,0-.118.054-.14.151a1.6,1.6,0,0,0-.043.453c-.011.367-.043.755-.086,1.164s-.1.842-.161,1.262q-.1.693-.238,1.38-.116.64-.27,1.272c-.086.345-.173.658-.248.928q-.093.334-.216.658c-.043.054-.075.1-.108.14s-.043.054-.064.054-.054-.054-.075-.162a3.828,3.828,0,0,1-.043-.517c-.033-.388-.065-.884-.119-1.5s-.108-1.25-.173-1.908c-.032-.313-.075-.625-.118-.938s-.074-.606-.129-.906a4.371,4.371,0,0,0-.281-.744,1.954,1.954,0,0,0-.312-.453.88.88,0,0,0-.475-.3,1.836,1.836,0,0,0-.377-.043.556.556,0,0,0-.345.086.375.375,0,0,0-.108.28.843.843,0,0,0,.032.205,1.938,1.938,0,0,1,.054.259c.14,1.046.3,2.243.507,3.591s.453,2.771.776,4.28a1.15,1.15,0,0,0,.022.205c.01.065.021.129.032.194a2.862,2.862,0,0,0,.141.55,1.135,1.135,0,0,0,.28.453c.033.032.076.065.119.108a.435.435,0,0,0,.129.108c.2.129.366.226.485.3a.749.749,0,0,0,.292.1.232.232,0,0,0,.151-.054,1,1,0,0,0,.108-.162.245.245,0,0,0,.054-.086.415.415,0,0,1,.053-.1,21.532,21.532,0,0,0,1.348-3.429,26.379,26.379,0,0,0,.993-4.884v-.043a.168.168,0,0,1,.021-.054v-.086a1.292,1.292,0,0,0-.193-.7,3.808,3.808,0,0,0-.519-.617Zm-21.824.916a1.349,1.349,0,0,0-.3-.442A7.937,7.937,0,0,0,63,81.2a.984.984,0,0,0-.216-.129.36.36,0,0,0-.161-.043.124.124,0,0,0-.119.1,1.654,1.654,0,0,0-.053.356q-.049.635-.065,1.272-.019.609-.021,1.218v.485c.01.324.021.658.032.981s.011.668.021,1.013a.612.612,0,0,1-.01.14c-.011.054-.022.075-.043.075s-.043-.032-.076-.1a1.1,1.1,0,0,1-.118-.27c-.043-.129-.183-.464-.41-1.013s-.5-1.144-.776-1.779c-.01-.022-.032-.054-.043-.075a.152.152,0,0,0-.021-.075c-.129-.291-.248-.572-.378-.83q-.161-.369-.334-.733a2.24,2.24,0,0,1-.129-.3,2.078,2.078,0,0,0-.119-.226.712.712,0,0,0-.334-.334,2.168,2.168,0,0,0-.561-.129c-.065-.011-.118-.022-.173-.032a1.138,1.138,0,0,1-.194-.022h-.14a.737.737,0,0,0-.237.033.15.15,0,0,0-.086.151,1.062,1.062,0,0,0,.086.313c.043.14.129.345.216.582.1.27.173.464.216.6a1.935,1.935,0,0,1,.075.377v.248a1.02,1.02,0,0,1-.01.173v.56c0,.432-.011.873-.022,1.326s-.033.906-.054,1.37L58.675,87.9c-.01.474-.022.96-.022,1.445v.226a.055.055,0,0,0-.01.033v.043a1.632,1.632,0,0,0,.075.539,1.275,1.275,0,0,0,.226.453c.1.108.216.226.345.345a4.487,4.487,0,0,0,.464.4,1.421,1.421,0,0,0,.269.151.5.5,0,0,0,.172.054c.076,0,.119-.054.151-.173a3.636,3.636,0,0,0,.032-.572,10.5,10.5,0,0,1-.1-1.24c-.01-.507-.021-1.035-.021-1.585v-.183a.961.961,0,0,1-.01-.173c0-.334,0-.658-.011-.981s-.01-.626-.032-.916v-.011c-.011,0-.011-.01-.011-.022v-.1a.206.206,0,0,1,.022-.087c.011-.021.022-.032.033-.032s.043.022.086.065a.738.738,0,0,1,.129.237c.129.259.259.54.388.852s.281.647.421.992c.043.108.086.226.129.334s.086.226.129.334c.183.453.356.906.528,1.348q.215.578.409,1.165a1.224,1.224,0,0,0,.086.2c.043.054.086.119.14.194a1.57,1.57,0,0,0,.313.226c.129.075.3.173.517.28a1.174,1.174,0,0,0,.183.108.32.32,0,0,0,.151.043.109.109,0,0,0,.086-.054.468.468,0,0,0,.022-.194V91.5c-.011-.054-.011-.119-.022-.183-.064-.431-.108-.96-.151-1.6q-.053-1.013-.054-2.027c0-.442.011-.895.032-1.369s.043-.949.065-1.434c.032-.334.064-.668.086-.992s.064-.647.108-.97a.48.48,0,0,0,.033-.173,1,1,0,0,0,.01-.162.611.611,0,0,0-.021-.151.5.5,0,0,0-.044-.151Zm11.451,7.85a1.253,1.253,0,0,0-.238-.5.5.5,0,0,0-.442-.237.217.217,0,0,0-.086.01c-.032,0-.065.011-.086.011a.333.333,0,0,0-.108.032.675.675,0,0,0-.086.043c-.4.108-.722.205-.981.259a2.552,2.552,0,0,1-.593.1.346.346,0,0,1-.238-.075.28.28,0,0,1-.1-.194v-.345a1.17,1.17,0,0,1-.011-.183v-.151c0-.388,0-.723.022-.992s.021-.485.043-.636a.548.548,0,0,0,.021-.119.3.3,0,0,0,.011-.1c.022-.075.043-.129.065-.141a.159.159,0,0,1,.108-.032h.453a7.859,7.859,0,0,0,1.056-.1c.313-.054.475-.173.475-.345V86.42c-.022-.086-.043-.151-.054-.216a1.258,1.258,0,0,0-.075-.173.952.952,0,0,0-1.132-.766,2.518,2.518,0,0,0-.281.011c-.1.011-.216.011-.356.022-.064,0-.118-.01-.14-.043a.212.212,0,0,1-.043-.151c0-.248.022-.475.043-.69s.065-.431.1-.647c.022-.129.043-.259.075-.388s.065-.259.1-.388c0-.011.011-.022.022-.033a.313.313,0,0,1,.118-.2.555.555,0,0,1,.27-.043,3.8,3.8,0,0,1,.474-.065h.916a.227.227,0,0,0,.129-.032.12.12,0,0,0,.054-.108.487.487,0,0,0-.043-.183A1.148,1.148,0,0,0,74.8,82.1a1.825,1.825,0,0,0-.291-.389c-.108-.118-.226-.226-.345-.334a.279.279,0,0,1-.075-.043.3.3,0,0,0-.065-.054c-.086-.054-.161-.1-.216-.129s-.108-.065-.161-.086a.945.945,0,0,0-.183-.022,1.8,1.8,0,0,0-.248-.01,10.393,10.393,0,0,0-1.963.161c-.442.086-.7.237-.776.421a.056.056,0,0,0-.022.043c-.011.01-.011.032-.011.054a.147.147,0,0,0-.01.065v.043a.983.983,0,0,0,.043.291,2.942,2.942,0,0,0,.118.324c.043.1.1.194.151.291a2.023,2.023,0,0,0,.151.27,1.463,1.463,0,0,0,.14.194.542.542,0,0,0,.118.141.082.082,0,0,1,.043.043c.011.033.021.054.032.086v.086a8.917,8.917,0,0,0-.323,1.391,16,16,0,0,0-.183,1.649c-.011.183-.022.377-.022.56s-.01.377-.01.572a12.571,12.571,0,0,0,.14,2.005,2.166,2.166,0,0,0,.41,1.154,1.2,1.2,0,0,0,.6.55,2.244,2.244,0,0,0,.841.162,2.338,2.338,0,0,0,.27-.011,2.013,2.013,0,0,0,.259-.022q.343-.066.679-.162a4.461,4.461,0,0,0,.6-.193c.151-.065.292-.119.41-.173s.226-.108.3-.14a.445.445,0,0,0,.2-.238,1.106,1.106,0,0,0,.054-.323.319.319,0,0,0-.01-.1v-.086Z" transform="translate(-22.466 -53.987)" fill="#ababd2" fill-rule="evenodd"/>
</svg>
