<svg id="louis-garneau" xmlns="http://www.w3.org/2000/svg" width="75.1" height="41.55" viewBox="0 0 75.1 41.55">
  <path id="Path_1138" data-name="Path 1138" d="M73.282,55.3,71.975,54.1l-1.439-1.138L68.962,51.89l-1.675-1-1.808-.971-1.875-.87-2.01-.8L59.486,47.5l-2.176-.636-2.243-.6L52.756,45.8l-2.377-.4-2.444-.335-2.478-.234-2.511-.134L40.4,44.625l-1.942.033-1.908.1-1.875.134-1.841.167-1.808.234-1.775.268-1.774.335-1.674.368L24.13,46.7l-1.641.435-1.54.5-1.54.535-1.473.6-1.406.6-1.372.67-1.306.67-1.239.737-1.172.737-1.138.8-1.038.8-.971.837-.9.87-.837.9-.77.9-.67.939-.569.971-.535,1-.4,1-.335,1-.234,1.038L2.9,64.344l-.067,1.038.067,1.34.234,1.306L3.5,69.333l.535,1.272.636,1.272.8,1.239.937,1.205,1.105,1.138,1.272,1.205,1.44,1.172,1.574,1.071,1.707,1,1.775.971,1.908.87,2.009.8,2.076.737,2.176.636,2.244.6,2.31.468,2.377.4,2.444.335,2.478.234,2.511.134,2.578.067,2.544-.067,2.511-.134,2.478-.234,2.444-.335,2.377-.4,2.311-.468,2.243-.6,2.176-.636,2.109-.737,1.976-.8,1.908-.87,1.808-.971,1.675-1,1.574-1.071,1.439-1.172,1.306-1.205,1.071-1.138.938-1.205.8-1.239.67-1.273.5-1.272.368-1.306.234-1.306.067-1.34-.067-1.305-.234-1.306-.368-1.306-.5-1.272-.67-1.273-.8-1.239-.938-1.205L73.282,55.3ZM40.4,84.669l-1.574-.033-1.54-.067-1.507-.134-1.473-.167-1.473-.234-1.44-.234-2.779-.67-1.339-.368-1.306-.436-1.239-.468-1.239-.5-1.172-.535-1.172-.569-1.071-.6-1.071-.636-1-.67-.937-.7-.9-.737-.837-.77-.77-.77-.737-.8-.67-.837-.6-.837-.535-.9-.5-.87-.4-.938-.335-.937L10.5,68.3l-.167-.971-.134-.971-.033-1,.033-1,.134-.971L10.5,62.4l.268-.938.335-.937.4-.9.5-.9.535-.87.6-.871.67-.837.737-.8.77-.77.837-.77.9-.737.937-.67,1-.7,1.071-.636,1.071-.6,1.172-.569,1.172-.535,1.239-.5,1.239-.468,1.306-.435,1.339-.368,1.373-.335,1.406-.3,1.44-.268,1.473-.234,1.473-.167,1.507-.1,1.54-.1h3.113l1.541.1,1.506.1,1.507.167,1.44.234,1.439.268,1.406.3,1.373.335,1.34.368,1.305.435,1.272.468,1.205.5,1.206.535,1.138.569,1.1.6,1.038.636,1,.7.938.67.9.737.837.77.8.77.737.8.67.837.6.871.535.87.469.9.4.9.335.937.268.938.2.971.1.971.067,1-.067,1-.1.971-.2.971L70,69.233l-.335.937-.4.938-.469.87-.535.9-.6.837-.67.837-.737.8-.8.77-.837.77-.9.737-.938.7-1,.67-1.038.636-1.1.6-1.138.569-1.206.535-1.205.5-1.272.468-1.305.436-1.34.368-1.373.368-1.406.3-1.439.234-1.44.234-1.507.167-1.506.134-1.541.067Zm4.32-16.239V62.4H42.745l-.6.067-.535.167-.535.268-.468.4-.369.435-.268.536-.167.569-.067.569.067.6.167.569.268.5.369.469.468.368.535.268.535.2.6.033ZM16.228,55.171h7.7V69.233l-.737.5-.6.636-.535.7-.4.8-.3.8-.167.871-.033.871.1.9H16.228ZM26.44,75.528h0l-.6-.067-.569-.167-.535-.3-.469-.368-.4-.469-.268-.535-.167-.57-.067-.6.067-.6.167-.569.268-.536.4-.469.469-.4.535-.268.569-.2.6-.034h1.674v6.161H26.44Zm11.317-8.806.067.535.167.536.234.5.368.4.4.368.5.234.535.167.535.067h5.659V62.4h4.185V75.327H30.391V55.171h14.33v6.161H40.569l-.535.033-.535.167L39,61.8l-.4.335-.368.435-.234.468-.167.535-.067.536v2.613h0Zm14.33,8.6h8.4l9.074-10.078L59.521,55.171H51.484l9.744,10.312-9.141,9.844,9.141-9.844Zm11.049-1.808.033-.335.1-.368.167-.3.234-.268.268-.2.3-.167.335-.1.369-.034.368.034.335.1.3.167.268.2.234.268.167.3.1.368.034.335-.034.368-.1.335-.167.335-.234.268-.268.2-.3.167-.335.1-.368.033-.369-.033-.335-.1-.3-.167-.268-.2-.234-.268-.167-.335-.1-.335Zm3.281,0-.034-.268-.067-.3-.168-.234-.167-.234-.2-.168-.268-.134-.268-.067-.3-.034-.3.034-.268.067-.234.134-.234.168-.167.234-.134.234-.1.3-.034.268.034.3.1.3.134.234.167.234.234.168.234.134.268.067.3.033.3-.033.268-.067.268-.134.2-.168.167-.234.168-.234.067-.3Zm-.569,1h-.435l-.435-.837h-.4v.837h-.368V72.582h1.206l.267.067.1.1.067.134.067.3-.033.2-.1.167-.168.1-.234.033Zm-.67-1.105.234-.067.067-.1.034-.134-.034-.167-.134-.067-.3-.033h-.469v.569Z" transform="translate(-2.835 -44.625)" fill="#ababd2" fill-rule="evenodd"/>
</svg>
