<svg id="olympic-2" xmlns="http://www.w3.org/2000/svg" width="130.091" height="26.73" viewBox="0 0 130.091 26.73">
  <path id="Path_1140" data-name="Path 1140" d="M103,93.651c-1.858,1.994-4.981,2.56-8.537,2.694V90.662c1.992-.134,3.555-.43,4.417-2.128.835-1.428-.269-3.636-1.293-4.121-1.32-.593-2.989-.565-4.822,1.266v16.78h-6.14V84.683l6.41-6.248C100.012,78,103,80,104.133,83.121c1.292,3.286,1,8.108-1.132,10.53Zm29.924-15.19c-5.845,0-14.545-1.131-17.669,4.849-1.428,2.989-1.858,9.561-.43,12.847,1.7,4.282,5.979,6.841,12.55,5.98v-5.98c-2.989.134-5.386.08-6.707-1.293-1.8-1.885-2.424-9.427,1.266-10.262a18.918,18.918,0,0,1,5.01-.134l5.98-6.007Zm-81.987,23.89H44.959V85.141l6.276-6.68v9.8l9.508-9.8h8.106l-17.91,16.78v7.109ZM43.8,96.642v5.737H30.576V84.171l6.114-5.683V96.642Zm62.459,5.764V84.817l6.276-6.114v23.7H106.26Zm-21.2-6.141-5.953,5.98V93.006l-9.7,9.534V92.87l-9.077,9.373H51.8L75.69,78.488V88.4l9.373-9.8V96.264ZM27.156,84.9c.566,2.478-1.7,1.428-4.578.727a8.776,8.776,0,0,0-3.394.862c-1.535.323-2.612-.916-3.905-.727-.889.135-1.616.674-2.64.862-1.185.243-1.912-.969-3.232-.969-1.1,0-1.859.862-2.882.969a3.95,3.95,0,0,1-2.694-.565c1.1-5.414,5.872-8.7,11.2-8.889,4.956-.188,9.535,2.478,12.121,7.731Zm-6.734-2.667c-.485.485-.943,1.266-1.832,1.266-.512,0-1.858-.916-3.286-.916-1.05,0-2.747.862-3.528.862-1.185,0-1.347-.512-2.208-1.158a7.9,7.9,0,0,1,5.494-1.7A8.231,8.231,0,0,1,20.422,82.232ZM8.975,95.78c.916,0,2.989-1.238,4.256-1.184,1.562-.108,1.8.888,3.1.7.889-.134,1.643-.727,2.667-.754,1.212-.027,1.912,1,3.231,1,1.1,0,1.832-.781,2.855-.889.781-.08,2.45-.323,2.693.323-1.158,5.6-6.168,8.916-11.69,8.916-4.74.027-9.131-2.64-11.635-7.757-.7-2.856,3.367-.513,4.525-.351ZM11.184,98.8c.4-.349.943-1.238,1.832-1.238.512,0,1.885.889,3.286.889,1.051,0,2.747-.862,3.555-.862,1.158,0,1.347.512,2.182,1.158a7.981,7.981,0,0,1-5.791,1.7A7.623,7.623,0,0,1,11.184,98.8Zm-8.35-7.514c1.535.108,2.29,1.213,3.367,1.24,1.051-.081,2.047-.916,3.071-.97,1.051.053,1.939.915,3.151.915,1.077.054,2.128-1.1,3.286-1.186,1.131,0,2.02,1.1,3.044,1.078,1.185.026,2.046-1.213,3.07-1.24.97,0,1.859,1.375,2.8,1.24,1.158.161,2.45-1.051,3.609-1.186v-2.8c-1.158.188-2.316,1.373-3.448,1.239-.97.108-1.832-1.266-2.8-1.266-1.024.027-1.912,1.293-3.07,1.266-1.051.027-1.912-1.077-3.071-1.1-1.158.108-2.208,1.239-3.286,1.186-1.185,0-2.1-.862-3.151-.916-1.024.054-1.994.916-3.044.969-1.077-.026-1.912-1.131-3.5-1.1Z" transform="translate(-2.834 -77.159)" fill="#ababd2" fill-rule="evenodd"/>
</svg>
